<?xml version="1.0" standalone="no"?>
<!DOCTYPE svg PUBLIC "-//W3C//DTD SVG 20010904//EN"
 "http://www.w3.org/TR/2001/REC-SVG-20010904/DTD/svg10.dtd">
<svg version="1.0" xmlns="http://www.w3.org/2000/svg"
 width="1200.000000pt" height="800.000000pt" viewBox="0 0 1200.000000 800.000000"
 preserveAspectRatio="xMidYMid meet">

<g transform="translate(0.000000,800.000000) scale(0.100000,-0.100000)"
fill="#000000" stroke="none">
<path d="M2496 7958 c-8 -52 0 -60 81 -77 32 -7 85 -18 118 -25 33 -8 96 -21
140 -31 44 -9 107 -23 140 -30 82 -18 329 -71 445 -96 183 -38 365 -82 374
-90 5 -4 -7 -41 -28 -83 -41 -87 -58 -198 -55 -372 2 -74 -2 -108 -13 -130
-46 -87 -51 -108 -49 -210 1 -56 -2 -112 -8 -125 -5 -13 -14 -49 -20 -79 -6
-30 -18 -89 -27 -130 -26 -123 -26 -445 0 -645 2 -16 9 -73 14 -125 22 -197
28 -227 90 -440 24 -84 130 -303 173 -358 78 -99 129 -154 177 -193 37 -29 54
-51 61 -77 6 -20 27 -104 47 -187 20 -82 43 -168 52 -190 38 -97 149 -238 238
-301 42 -30 63 -52 60 -61 -3 -7 -9 -64 -12 -126 -9 -149 -14 -161 -61 -154
-23 4 -74 -3 -137 -18 -56 -13 -120 -26 -142 -30 -39 -6 -84 -35 -84 -54 0 -5
17 -11 38 -15 80 -13 249 -96 304 -149 7 -7 32 -26 55 -43 49 -36 173 -167
173 -184 0 -6 4 -9 8 -6 5 3 51 -40 103 -96 52 -56 102 -109 112 -120 9 -10
14 -18 10 -18 -3 0 4 -8 15 -19 12 -10 22 -23 22 -30 0 -6 7 -11 15 -11 8 0
15 -4 15 -10 0 -15 82 -100 97 -100 7 0 13 -6 13 -14 0 -7 16 -29 36 -49 35
-34 36 -35 18 -54 -11 -10 -73 -124 -138 -254 -120 -235 -120 -236 -166 -257
-28 -13 -75 -51 -117 -95 -79 -83 -109 -107 -135 -107 -16 0 -18 11 -19 93 0
106 -15 162 -42 162 -19 0 -27 -19 -71 -164 -9 -29 -16 -74 -16 -100 0 -52 -9
-91 -20 -91 -4 0 -21 -12 -37 -28 -43 -39 -102 -70 -111 -56 -4 6 -20 10 -37
9 -36 -2 -45 -27 -20 -55 16 -18 16 -23 -15 -96 -18 -43 -36 -85 -41 -93 -5
-9 -34 -74 -65 -146 -31 -71 -60 -134 -64 -140 -4 -5 -15 -34 -25 -62 -18 -50
-18 -55 -2 -106 26 -83 22 -109 -25 -146 -14 -11 -21 -11 -33 -1 -8 7 -21 10
-29 7 -8 -3 -16 2 -19 14 -5 17 -9 19 -26 10 -35 -19 -36 -18 -126 124 -17 28
-45 70 -61 94 -16 24 -33 51 -39 60 -47 74 -68 101 -75 96 -13 -8 8 -52 47
-101 18 -23 33 -51 33 -63 0 -12 13 -35 29 -50 16 -16 39 -48 51 -71 12 -23
32 -52 44 -64 26 -25 76 -112 76 -133 0 -8 -7 -13 -17 -11 -9 2 -15 7 -14 12
2 5 -2 12 -8 16 -14 8 -81 111 -81 123 0 4 -5 13 -10 20 -29 34 -124 186 -133
212 -6 17 -16 34 -24 38 -7 4 -13 13 -13 18 0 6 -10 24 -21 41 -20 27 -20 33
-9 68 7 22 20 42 29 45 13 5 13 7 1 15 -11 7 -11 11 -2 23 7 8 11 19 10 23 -3
9 16 80 50 188 l15 50 11 -33 c6 -18 16 -33 21 -33 6 0 18 22 27 49 10 26 20
55 24 63 3 8 44 30 92 49 146 56 276 101 294 101 10 0 18 5 18 10 0 12 -13 18
-50 23 -14 2 -37 10 -52 17 -38 18 -50 14 -358 -119 -72 -31 -69 -28 -111
-171 -11 -41 -36 -122 -54 -180 -40 -127 -49 -176 -35 -185 5 -3 8 -16 5 -28
-4 -13 3 -76 14 -142 64 -376 87 -535 78 -535 -14 0 -124 118 -139 150 -53
109 -67 151 -61 185 5 31 3 37 -16 42 -12 3 -21 13 -21 24 0 11 -2 19 -5 19
-12 0 -72 -33 -123 -68 -44 -30 -56 -34 -75 -25 -46 22 -113 51 -134 57 -13 4
-23 10 -23 14 0 4 28 18 63 31 154 58 377 190 377 223 0 18 -91 -2 -196 -44
l-102 -41 -36 28 c-20 15 -36 33 -36 39 0 13 44 69 108 138 65 69 126 174 142
243 7 33 17 68 23 79 5 10 17 49 28 86 10 37 33 98 51 136 31 67 32 73 30 184
-2 74 3 140 12 185 20 91 20 236 0 333 -24 113 -10 215 57 420 12 35 19 66 16
69 -3 3 -17 -3 -31 -14 -26 -19 -28 -25 -156 -368 -94 -251 -95 -255 -114
-440 -9 -88 -21 -189 -26 -225 -5 -36 -16 -132 -25 -215 -15 -140 -37 -246
-55 -270 -7 -9 -81 -145 -176 -325 -19 -36 -49 -78 -67 -93 -91 -81 -172 -138
-262 -187 -265 -141 -285 -153 -285 -176 0 -8 3 -14 6 -14 4 0 58 25 122 56
139 68 287 124 326 124 28 0 239 -111 253 -133 3 -5 -17 -32 -45 -61 -119
-121 -141 -148 -175 -219 -20 -41 -45 -108 -56 -148 -60 -222 -71 -258 -95
-299 -14 -25 -26 -48 -26 -52 0 -5 546 -8 1214 -8 l1213 0 7 42 c6 36 20 55
99 133 51 51 99 96 107 101 8 5 20 18 26 29 7 11 19 19 28 19 9 -1 13 3 10 8
-9 13 154 171 167 162 6 -3 9 0 7 8 -2 8 14 30 35 50 20 19 37 39 37 43 0 4
10 27 22 51 28 57 56 59 48 4 -1 -8 1 -12 5 -8 8 8 24 -7 43 -41 12 -20 12
-25 0 -33 -10 -8 -9 -9 4 -4 12 3 24 -6 39 -32 12 -20 42 -67 66 -105 24 -37
48 -79 53 -92 5 -14 16 -28 23 -31 7 -2 67 13 133 35 127 42 361 101 398 101
12 0 53 9 89 21 63 20 67 23 77 59 6 21 15 72 20 115 12 98 31 136 24 46 -3
-35 -10 -86 -15 -115 -19 -97 -20 -111 -19 -193 1 -53 -3 -83 -9 -83 -6 0 -11
-4 -11 -10 0 -5 8 -10 18 -10 14 0 15 -2 2 -10 -9 -6 -114 -10 -245 -10 -219
0 -305 -10 -224 -25 44 -8 636 -12 869 -5 l175 5 0 -30 0 -30 -535 -5 -535 -5
-3 -57 c-3 -58 -3 -58 25 -58 128 1 443 -10 461 -16 12 -3 22 -10 22 -15 0 -5
16 -9 35 -9 19 0 35 4 35 10 0 20 81 29 255 30 99 0 190 1 203 0 15 0 22 -6
22 -20 0 -20 7 -20 304 -20 l304 0 27 86 c34 111 62 155 92 147 15 -3 25 0 29
11 10 26 29 18 47 -18 l16 -35 -97 -95 -96 -96 939 0 c814 0 944 2 969 15 35
19 40 19 32 0 -6 -17 2 -19 23 -6 8 5 10 14 6 21 -6 9 -4 11 4 6 7 -5 10 -14
7 -22 -5 -12 43 -14 307 -14 l312 0 146 143 c119 116 153 156 188 219 23 43
43 78 45 78 2 0 132 -55 200 -84 47 -21 63 -16 68 21 10 77 -62 187 -140 214
-35 12 -36 28 -6 76 81 129 107 192 117 288 5 49 11 101 13 114 5 23 6 23 20
5 13 -18 14 -17 8 9 -5 22 -3 27 13 27 16 0 18 6 15 43 -3 23 -8 45 -13 48 -5
3 -4 19 2 37 7 22 8 37 1 45 -10 12 -8 138 3 230 7 57 -3 74 -70 122 -50 35
-70 37 -62 4 3 -11 0 -19 -7 -19 -7 0 -21 -9 -31 -20 -23 -26 -61 -25 -150 0
-39 11 -97 27 -130 35 -104 24 -486 154 -573 195 l-84 40 6 45 c9 54 2 58
-118 78 -44 7 -82 19 -84 25 -5 15 29 15 118 1 38 -7 77 -8 87 -4 10 5 39 10
65 12 40 3 50 0 71 -22 20 -23 36 -27 113 -35 120 -11 144 -18 144 -41 0 -12
9 -21 28 -24 103 -22 311 -82 326 -94 16 -13 132 -51 156 -51 9 0 29 9 44 21
14 11 30 18 35 15 19 -12 48 103 32 132 -12 23 -70 42 -331 107 -30 8 -88 25
-129 40 -41 14 -136 36 -210 49 -174 32 -420 113 -475 158 -35 28 -48 32 -101
33 -33 0 -81 -2 -107 -5 -54 -6 -65 8 -22 29 43 21 264 37 322 23 26 -6 92
-14 147 -17 95 -6 102 -5 132 18 18 13 30 27 26 30 -3 4 -2 7 4 7 16 0 34 -26
25 -35 -4 -5 1 -5 11 -2 10 4 21 7 23 7 3 0 2 5 -2 12 -4 7 -3 8 5 4 6 -4 9
-11 6 -15 -2 -5 1 -16 9 -26 12 -17 14 -17 49 0 20 9 37 21 37 26 0 22 18 6
26 -22 9 -31 13 -33 134 -64 69 -17 155 -42 192 -55 65 -22 68 -22 117 -5 37
12 56 25 66 46 26 49 35 34 35 -55 0 -81 19 -156 39 -156 17 0 117 182 108
198 -66 119 -90 152 -101 142 -20 -16 -205 24 -277 60 -82 41 -238 78 -394 96
-71 7 -163 21 -204 30 -51 11 -93 14 -141 9 -95 -10 -167 12 -219 66 l-38 40
-84 -20 c-46 -11 -94 -23 -106 -27 -49 -14 -20 17 47 50 82 41 94 43 262 51
70 4 155 10 190 15 35 5 100 10 145 10 45 0 85 5 88 10 8 12 115 13 115 1 0
-5 39 -14 88 -21 48 -7 107 -19 132 -26 63 -19 89 -17 137 8 l42 23 29 -28
c42 -40 58 -35 72 22 23 95 -18 120 -220 131 -188 11 -337 36 -458 77 -72 24
-113 33 -134 29 -22 -4 -34 -1 -46 13 -17 19 -19 19 -147 -14 -71 -19 -131
-35 -132 -35 -2 0 -3 7 -3 15 0 8 16 21 35 29 22 10 35 22 35 33 0 16 6 18 36
15 19 -2 61 3 92 13 95 28 101 31 95 56 -4 16 -2 20 8 17 8 -3 28 0 44 7 17 6
59 13 95 14 36 1 73 4 82 7 10 3 27 -1 38 -9 21 -15 66 -12 76 5 3 5 1 15 -5
22 -8 9 -7 21 5 44 8 18 19 34 24 37 23 14 -11 201 -41 225 -15 12 -20 54 -9
75 10 19 9 41 -5 115 -22 122 -24 127 -86 189 -54 54 -110 79 -219 96 -24 4
-56 15 -69 24 -19 12 -50 16 -124 16 -106 0 -102 -2 -126 58 -14 35 -28 34
-49 -4 -40 -73 -48 -78 -167 -89 -108 -10 -406 -30 -760 -50 -382 -22 -706
-41 -850 -51 -82 -5 -164 -10 -182 -11 -17 -1 -37 3 -45 8 -7 6 -22 14 -33 17
-15 5 -13 0 9 -19 24 -21 35 -45 53 -118 12 -50 22 -111 21 -136 -1 -31 -2
-36 -5 -15 -2 17 -7 39 -12 50 -4 11 -16 47 -26 80 -9 33 -21 68 -26 77 -5 10
-9 25 -9 33 0 19 -57 55 -87 55 -13 0 -24 -8 -28 -19 -8 -26 18 -24 -900 -74
-194 -11 -220 -14 -217 -29 2 -12 -11 -19 -50 -28 -29 -7 -81 -26 -116 -41
-34 -16 -68 -29 -75 -29 -7 0 -28 -15 -46 -34 -39 -40 -81 -165 -81 -241 0
-27 -5 -57 -10 -65 -9 -13 -13 -11 -30 10 -11 14 -20 31 -20 38 0 6 -4 12 -8
12 -4 0 -21 20 -36 45 -16 25 -35 50 -42 56 -20 16 -17 40 11 93 14 25 20 46
13 46 -17 0 -37 32 -37 60 -1 25 76 136 151 219 39 44 39 46 -6 49 -44 3 -217
59 -256 83 -19 12 -63 37 -97 55 -106 57 -164 103 -274 218 -250 261 -354 411
-420 606 -27 80 -32 113 -35 212 -2 64 0 119 4 122 5 3 23 -5 41 -18 86 -64
238 -71 352 -17 84 40 186 138 215 207 12 29 11 36 -14 84 -15 29 -40 66 -55
83 -15 16 -25 32 -23 35 8 8 66 -19 97 -45 16 -14 33 -22 39 -18 6 4 7 36 4
84 -5 73 -4 80 19 105 29 31 39 91 22 126 -16 31 -51 63 -92 84 -17 9 -34 20
-38 25 -7 13 180 141 206 141 5 0 9 5 9 11 0 5 4 8 9 4 5 -3 13 -1 16 5 4 6
33 24 65 40 32 16 63 38 69 47 6 10 11 14 11 10 0 -5 13 1 29 12 16 12 32 21
36 21 8 0 79 53 83 63 2 4 10 7 17 7 11 0 91 58 140 103 111 99 120 109 86 90
-18 -10 -41 -28 -51 -41 -10 -13 -21 -22 -23 -20 -3 2 -25 -15 -49 -37 -38
-37 -88 -69 -171 -112 -15 -8 -25 -19 -22 -24 4 -5 -1 -6 -9 -3 -8 3 -21 1
-28 -5 -50 -42 -356 -221 -378 -221 -23 0 -25 17 -5 44 11 15 12 23 3 33 -15
19 5 39 152 150 270 203 504 439 579 585 40 79 43 89 36 137 -6 41 -12 54 -30
61 -14 5 -24 20 -28 39 -4 17 -10 31 -14 31 -5 0 -48 -32 -98 -70 -99 -75
-180 -124 -198 -117 -7 3 23 39 65 80 45 44 76 81 73 89 -3 8 15 29 45 52 64
49 75 68 49 84 -10 7 -19 8 -19 3 0 -5 5 -11 10 -13 6 -2 1 -14 -11 -26 -23
-25 -40 -22 -19 3 11 13 11 18 0 28 -10 9 -11 9 -6 0 4 -7 2 -13 -3 -13 -6 0
-11 -12 -11 -27 -1 -26 -2 -27 -14 -10 -14 18 -14 17 -21 -2 -3 -12 -3 -25 0
-31 3 -5 -1 -10 -9 -10 -8 0 -20 -8 -25 -17 -9 -16 -10 -16 -11 4 0 12 5 23
12 25 8 3 12 28 11 76 -1 40 3 74 7 77 4 3 6 14 3 25 -5 17 -8 18 -21 8 -13
-11 -15 -10 -10 4 4 10 1 19 -7 22 -9 3 -12 12 -8 22 5 13 2 16 -10 11 -14 -5
-15 -3 -5 18 6 14 17 25 25 25 7 0 13 5 13 10 0 6 -15 9 -35 7 -32 -4 -140
-68 -344 -204 -35 -24 -68 -43 -72 -43 -26 0 -1 45 69 125 79 90 110 135 94
135 -4 0 -49 -30 -98 -67 -151 -114 -192 -139 -379 -233 -55 -27 -118 -61
-140 -75 -22 -13 -53 -32 -70 -41 -35 -20 -135 -90 -220 -154 -33 -25 -73 -51
-89 -58 l-28 -13 7 37 c10 56 48 109 169 233 138 141 78 119 -79 -30 -33 -31
-80 -74 -105 -94 -25 -20 -56 -50 -70 -66 -26 -30 -60 -39 -60 -16 0 7 11 28
25 47 29 40 24 54 -19 47 -38 -6 -73 18 -78 54 -2 18 -10 25 -30 27 -26 3 -28
6 -28 53 l0 49 -39 0 c-51 0 -64 17 -56 74 9 55 -2 59 -52 20 -36 -27 -62 -26
-64 3 -3 43 -1 69 6 86 5 12 3 17 -9 17 -20 0 -20 0 1 63 21 66 34 87 101 165
30 35 52 65 49 68 -2 3 -24 -8 -48 -24 -54 -36 -109 -51 -109 -29 0 8 7 20 15
27 9 7 13 21 10 30 -5 17 57 70 191 162 51 35 60 38 172 47 107 10 232 40 256
62 6 5 -288 9 -679 9 -573 0 -687 -2 -675 -13 15 -13 91 -44 220 -87 105 -36
122 -47 118 -78 -2 -20 -9 -28 -28 -29 -14 -2 -200 43 -415 99 l-390 101 -246
4 -246 4 -7 -43z m1799 -17 c7 -12 -31 -25 -45 -16 -6 4 -8 11 -5 16 8 12 42
12 50 0z m1009 -2364 c12 -9 17 -23 14 -42 -3 -27 -7 -30 -38 -30 -31 0 -35 3
-38 30 -3 26 17 55 38 55 3 0 14 -6 24 -13z m-757 -28 c4 -14 8 -17 13 -9 5 9
9 9 14 1 4 -6 1 -14 -8 -17 -12 -5 -13 -10 0 -39 8 -19 14 -48 14 -64 0 -16 5
-33 10 -36 6 -3 10 -26 10 -51 0 -28 4 -43 10 -39 6 3 10 15 10 26 0 10 5 19
11 19 7 0 9 -11 6 -30 -4 -17 -2 -30 3 -30 6 0 10 -11 10 -25 0 -14 4 -33 9
-43 6 -9 24 -62 41 -117 18 -55 36 -104 40 -110 4 -5 29 -76 55 -157 38 -119
56 -160 97 -218 47 -67 122 -130 154 -130 18 0 29 -21 15 -29 -20 -13 -191 -2
-220 14 -40 20 -109 103 -157 188 -40 73 -114 244 -114 267 0 6 -20 71 -44
143 -65 194 -88 282 -96 372 -8 91 -5 99 56 120 52 19 55 18 61 -6z m468 -25
c-21 -54 -23 -99 -9 -164 7 -30 11 -57 8 -59 -8 -8 -54 42 -75 82 -25 50 -20
90 19 133 25 30 63 56 70 49 1 -1 -4 -20 -13 -41z m-411 -9 c-7 -16 -24 -21
-24 -6 0 8 7 13 27 20 1 1 0 -6 -3 -14z m12 -87 c0 -10 -6 -18 -13 -18 -7 0
-13 8 -13 18 0 10 6 19 13 19 7 0 13 -9 13 -19z m-296 -57 c0 -51 102 -326
174 -471 122 -244 179 -334 277 -437 l51 -53 86 1 c73 1 88 -1 102 -17 21 -26
150 -111 174 -116 10 -1 24 -12 30 -23 6 -11 16 -24 23 -30 18 -15 35 -143 40
-295 4 -114 2 -136 -11 -146 -16 -11 0 -28 108 -114 66 -53 130 -119 147 -152
27 -52 50 -220 38 -273 -3 -16 2 -21 23 -23 49 -6 52 -26 11 -61 -62 -52 -73
-64 -73 -81 0 -9 -9 -25 -20 -35 -12 -11 -31 -36 -42 -57 -23 -41 -38 -47 -62
-23 -8 8 -17 15 -19 15 -23 0 -245 223 -251 251 -5 24 -2 27 30 34 29 5 44 1
75 -19 21 -15 67 -40 101 -56 35 -17 79 -39 98 -50 33 -19 36 -19 48 -3 13 18
17 66 13 178 -1 39 2 76 7 84 7 9 -3 25 -34 56 -23 24 -51 46 -61 49 -20 7
-118 114 -110 122 5 5 53 -20 104 -53 21 -14 25 -15 21 -3 -6 20 -290 254
-348 287 -100 58 -150 95 -150 111 1 22 19 44 52 61 33 17 82 63 116 111 14
19 32 40 40 47 8 7 12 19 9 28 -7 16 -43 19 -178 15 -73 -2 -78 0 -125 34 -86
62 -150 120 -188 171 -38 49 -156 280 -156 303 0 7 -15 43 -34 80 -98 195
-152 368 -157 502 -2 67 -1 70 11 70 6 0 10 -9 10 -19z m115 -736 c45 -83 107
-187 143 -238 30 -44 34 -67 12 -67 -22 0 -106 101 -135 165 -44 93 -67 165
-60 183 7 18 7 18 40 -43z m1970 -904 c3 -6 -3 -14 -12 -20 -17 -9 -17 -11 -1
-23 16 -13 48 -126 48 -173 0 -22 -24 -40 -40 -30 -4 3 -10 -4 -13 -16 -3 -13
-12 -19 -24 -17 -13 2 -17 -3 -16 -19 3 -27 -12 -30 -26 -5 -9 14 -10 10 -8
-18 1 -27 -2 -35 -14 -34 -13 1 -16 -11 -15 -77 1 -50 -3 -82 -11 -90 -18 -18
-16 -34 2 -19 13 11 15 8 14 -21 0 -42 -16 -122 -18 -91 0 12 -7 21 -13 20
-10 -2 -13 38 -13 175 0 178 0 179 -24 199 -21 16 -23 22 -13 39 13 20 3 26
-14 9 -7 -7 -19 -3 -37 14 -15 14 -27 20 -27 14 0 -9 -3 -9 -11 -1 -15 15 12
70 55 112 58 56 211 104 231 72z m1235 -191 c0 -5 -4 -10 -10 -10 -5 0 -10 5
-10 10 0 6 5 10 10 10 6 0 10 -4 10 -10z m1840 -12 c0 -13 -13 -61 -29 -108
-41 -122 -51 -192 -56 -394 -5 -185 -11 -242 -26 -252 -12 -7 -11 540 1 586
15 59 34 103 64 148 32 47 46 53 46 20z m-1197 1 c7 0 3 -4 -8 -9 -29 -13 -35
-12 -35 6 0 11 5 14 16 10 9 -3 21 -6 27 -7z m-653 -13 c0 -3 -4 -8 -10 -11
-5 -3 -10 -1 -10 4 0 6 5 11 10 11 6 0 10 -2 10 -4z m600 -20 c0 -3 -4 -8 -10
-11 -5 -3 -10 -1 -10 4 0 6 5 11 10 11 6 0 10 -2 10 -4z m-493 -28 c-3 -8 -6
-5 -6 6 -1 11 2 17 5 13 3 -3 4 -12 1 -19z m504 -29 c-22 -21 -41 -25 -41 -8
0 6 9 13 20 16 11 3 20 10 20 15 0 5 5 6 11 3 7 -5 3 -14 -10 -26z m1929 -19
c22 -14 20 -104 -2 -126 -16 -16 -18 -16 -24 -1 -3 9 -10 17 -15 17 -5 0 -18
9 -29 20 -12 12 -26 17 -37 13 -12 -5 -15 -2 -10 10 3 9 2 19 -3 22 -17 11
-11 32 13 43 28 13 87 15 107 2z m-3030 -4 c0 -3 -4 -8 -10 -11 -5 -3 -10 -1
-10 4 0 6 5 11 10 11 6 0 10 -2 10 -4z m420 -6 c0 -5 -5 -10 -11 -10 -5 0 -7
5 -4 10 3 6 8 10 11 10 2 0 4 -4 4 -10z m1313 3 c-7 -2 -19 -2 -25 0 -7 3 -2
5 12 5 14 0 19 -2 13 -5z m147 -7 c0 -11 -34 -98 -55 -141 -13 -27 -25 -66
-27 -85 -2 -29 -7 -35 -28 -38 -18 -2 -28 4 -36 22 -11 23 -10 25 10 23 17 -2
29 14 67 88 34 65 44 95 38 107 -6 11 -5 18 4 21 15 7 27 8 27 3z m-135 -16
c-3 -5 -15 -10 -26 -10 -10 0 -19 5 -19 10 0 6 12 10 26 10 14 0 23 -4 19 -10z
m-1775 -15 c-7 -8 -14 -15 -15 -15 -2 0 -5 7 -9 15 -4 10 1 15 16 15 17 0 18
-2 8 -15z m430 10 c0 -2 -10 -10 -22 -16 -21 -11 -22 -11 -9 4 13 16 31 23 31
12z m786 -15 c0 -20 -7 -25 -19 -13 -4 3 -2 12 4 20 15 17 15 17 15 -7z m585
-10 c21 -12 26 -58 9 -90 -11 -21 -78 -46 -90 -34 -17 20 -61 107 -47 96 13
-11 20 -8 41 13 27 27 55 32 87 15z m1124 -10 c3 -5 1 -10 -4 -10 -6 0 -11 5
-11 10 0 6 2 10 4 10 3 0 8 -4 11 -10z m-3615 -47 c0 -7 -4 -13 -9 -13 -5 0
-16 -3 -25 -6 -19 -7 -20 4 -6 42 10 26 11 26 25 8 8 -10 15 -25 15 -31z
m1060 12 c-7 -8 -17 -15 -23 -15 -5 0 -2 9 8 20 21 23 35 19 15 -5z m-1098
-52 c17 -15 18 -15 18 0 0 10 5 17 11 17 6 0 9 -7 5 -15 -7 -19 3 -47 15 -39
5 3 9 -1 9 -9 0 -8 -7 -17 -15 -21 -9 -3 -16 -19 -17 -38 l-1 -33 -4 34 c-4
34 -25 64 -40 59 -4 -2 -9 12 -11 30 -4 36 3 40 30 15z m906 -13 c53 -32 77
-38 69 -16 -4 10 0 12 14 9 10 -3 26 0 34 7 12 10 15 9 15 -4 0 -9 7 -16 16
-16 12 0 10 -10 -12 -50 -15 -27 -35 -57 -45 -66 -18 -16 -19 -16 -19 18 0 38
-16 57 -87 103 -24 15 -43 32 -43 36 0 14 6 11 58 -21z m2982 -65 c-14 -17
-30 -20 -30 -4 0 5 4 8 9 4 5 -3 12 -1 16 5 3 5 9 10 12 10 3 0 0 -7 -7 -15z
m-2438 -37 c-7 -7 -12 -20 -12 -31 0 -10 -4 -16 -9 -13 -11 7 -2 48 13 58 15
10 22 0 8 -14z m-1452 -10 c0 -5 7 -16 15 -24 8 -9 15 -23 14 -32 0 -11 -2
-12 -6 -4 -2 6 -9 12 -14 12 -4 0 -6 -7 -3 -15 4 -9 19 -15 35 -15 29 0 32 -5
41 -65 3 -19 11 -20 108 -20 l105 0 -5 25 c-2 14 -4 43 -5 65 0 35 3 40 23 39
12 0 22 3 22 8 0 5 6 6 13 2 9 -6 9 -5 0 7 -10 12 -7 15 18 17 16 1 29 -2 29
-8 0 -5 8 -10 18 -10 13 0 14 -2 3 -9 -10 -7 -1 -15 35 -32 27 -12 55 -23 63
-23 35 -2 41 -90 9 -117 -20 -16 -41 -18 -178 -19 -108 0 -160 -4 -168 -12 -7
-7 -12 -45 -12 -99 0 -81 -1 -87 -22 -93 -39 -10 -105 -7 -164 9 -44 11 -72
12 -128 5 -186 -25 -383 -42 -427 -36 -26 4 -67 14 -91 22 -24 9 -75 17 -115
19 -71 2 -71 2 -124 -41 -39 -32 -68 -46 -109 -54 -30 -6 -75 -18 -99 -26 -25
-8 -48 -11 -53 -6 -4 4 3 25 15 47 18 32 37 47 94 75 40 19 83 45 96 58 16 15
36 22 61 22 21 0 68 13 104 29 63 28 179 61 267 76 64 11 93 32 126 90 17 30
33 55 35 55 3 0 17 -9 32 -19 19 -14 59 -23 132 -31 58 -6 114 -17 125 -24 33
-21 70 -27 89 -13 16 12 15 14 -8 36 -18 17 -23 29 -17 40 5 9 11 28 15 44 5
20 3 27 -9 27 -8 0 -15 9 -15 20 0 13 5 18 15 14 8 -4 15 -10 15 -16z m62 -32
c-2 -5 -9 -1 -14 8 -5 9 -6 21 -2 28 9 14 25 -22 16 -36z m2125 -44 c3 -14 11
-21 19 -18 9 3 14 -2 14 -14 0 -10 5 -22 10 -25 6 -3 10 -15 10 -27 0 -14 5
-18 15 -14 19 7 19 1 0 -18 -14 -14 -11 -51 4 -41 4 2 13 -12 20 -31 12 -34 7
-74 -10 -74 -5 0 -9 -7 -9 -15 0 -8 6 -15 14 -15 19 0 28 -29 29 -102 2 -51 4
-58 19 -54 23 5 24 -36 3 -78 -8 -15 -15 -35 -15 -42 0 -8 -4 -14 -10 -14 -5
0 -10 5 -10 11 0 5 -4 7 -10 4 -6 -3 1 -18 15 -33 27 -29 31 -41 15 -43 -5 -1
-14 -3 -20 -4 -5 -1 -12 -3 -15 -4 -3 0 1 -14 10 -31 9 -17 11 -30 5 -30 -5 0
-10 7 -10 15 0 8 -7 15 -15 15 -18 0 -18 -1 0 -36 24 -46 20 -64 -14 -64 -17
0 -32 -4 -35 -8 -9 -14 12 -35 28 -29 11 4 16 1 16 -9 0 -12 -7 -15 -25 -12
-33 7 -50 -14 -35 -42 7 -13 17 -19 27 -16 13 5 14 -1 9 -41 -11 -77 -46 -153
-74 -160 -17 -4 -22 -11 -19 -24 3 -11 2 -19 -3 -19 -4 0 -10 -10 -14 -22 -3
-13 -16 -35 -28 -50 -13 -15 -31 -39 -41 -53 -10 -14 -27 -25 -37 -25 -13 0
-22 -9 -26 -27 -3 -16 -12 -48 -19 -73 -11 -36 -14 -40 -14 -17 -1 20 -6 27
-20 27 -11 0 -21 -5 -23 -11 -5 -14 -38 0 -38 16 0 17 30 41 63 49 16 4 27 13
27 24 0 9 12 37 25 62 14 25 30 56 37 70 7 14 21 31 30 38 10 7 18 19 18 26 0
7 8 21 19 30 10 9 21 35 25 56 3 22 10 40 15 40 15 0 32 51 21 65 -5 6 -7 14
-4 18 7 6 -32 32 -62 41 -12 4 -27 -1 -40 -12 -34 -32 -113 -74 -125 -67 -6 4
-21 -4 -33 -18 -12 -15 -36 -28 -58 -31 -36 -7 -38 -5 -38 19 0 14 -4 26 -10
27 -30 4 -35 1 -35 -22 0 -24 -2 -25 -59 -23 -66 2 -86 14 -66 38 15 18 -2 45
-29 45 -10 0 -27 9 -39 20 -12 11 -26 20 -32 20 -19 0 -93 85 -112 130 -17 40
-32 142 -32 227 0 49 -14 29 -21 -30 -8 -64 15 -178 49 -245 28 -55 85 -115
133 -137 40 -19 56 -40 22 -30 -47 15 -67 24 -73 33 -3 4 -30 9 -61 10 -34 1
-53 -2 -50 -8 3 -6 -6 -10 -20 -10 -15 0 -24 -4 -20 -10 3 -5 2 -10 -4 -10 -5
0 -12 9 -16 19 -3 10 -15 21 -26 24 -10 3 -24 19 -30 36 -6 17 -15 31 -20 31
-5 0 -9 18 -9 39 0 22 -4 43 -10 46 -5 3 -10 15 -10 26 0 10 -4 19 -9 19 -12
0 -21 27 -15 44 3 9 12 12 21 9 10 -4 14 -2 11 7 -2 7 -14 15 -26 17 -48 7
-58 9 -69 16 -20 12 -97 11 -101 -1 -2 -7 -8 -10 -13 -6 -18 11 -8 31 26 50
19 10 35 22 35 26 0 5 14 8 31 8 26 0 29 2 20 14 -10 11 -8 16 7 20 22 7 77
120 73 150 -2 10 2 15 8 12 12 -8 26 37 18 59 -4 8 0 27 8 42 8 15 12 37 9 48
-4 16 1 24 20 33 18 8 26 19 26 37 0 14 5 25 10 25 6 0 10 10 10 21 0 17 5 20
23 17 19 -4 23 0 25 23 3 44 20 79 37 79 23 0 18 -20 -19 -93 -37 -70 -39 -78
-37 -145 l1 -43 26 20 c14 11 32 17 39 15 8 -3 28 4 45 16 16 12 34 19 39 16
5 -3 11 1 15 9 3 8 10 15 17 15 6 0 9 -7 5 -15 -3 -8 -2 -14 2 -14 27 4 52 -3
46 -12 -9 -15 38 0 48 15 11 17 10 24 -9 34 -21 12 -10 42 17 42 11 0 20 5 20
10 0 17 55 11 70 -7 8 -10 14 -28 12 -40 -3 -17 2 -23 16 -23 40 0 39 69 -1
72 -12 1 7 4 43 7 45 4 70 2 81 -6 8 -7 22 -13 30 -13 8 0 5 -6 -8 -15 -32
-23 -19 -45 22 -38 65 11 172 -77 221 -183 34 -73 48 -188 35 -289 -8 -53 -8
-91 -2 -106 5 -13 10 -19 10 -12 1 7 7 10 15 7 9 -3 15 4 18 20 4 18 1 26 -8
26 -17 0 -18 22 -3 74 8 29 13 36 20 25 7 -11 9 -9 9 9 0 12 -3 22 -7 22 -5 0
-8 30 -8 68 -1 49 3 70 15 79 15 12 13 14 -12 17 -13 1 -25 36 -27 74 -1 13 3
21 8 18 5 -3 11 5 13 19 4 20 3 23 -8 14 -7 -6 -19 -7 -26 -3 -7 5 -19 9 -27
10 -19 3 -61 45 -61 62 0 7 10 22 22 31 17 15 21 27 20 67 -1 27 -7 51 -12 52
-6 2 -10 10 -10 17 0 8 -10 31 -22 51 -12 21 -17 35 -11 31 7 -4 14 1 18 14 7
20 8 20 41 -12 19 -19 37 -44 41 -57z m423 -357 c0 -18 17 -20 23 -2 2 6 8 9
12 4 10 -8 -25 -38 -40 -33 -12 3 -16 46 -4 46 5 0 9 -7 9 -15z m144 -27 c20
-38 20 -38 1 -38 -8 0 -15 6 -16 13 0 6 -2 22 -5 35 -6 31 2 28 20 -10z
m-2370 -51 c9 -9 32 -19 51 -23 60 -11 49 -24 -19 -23 -76 1 -90 -4 -76 -31
17 -32 31 -123 25 -161 l-6 -36 -97 -1 c-53 0 -142 -8 -197 -16 -135 -22 -252
-31 -425 -31 -127 0 -154 3 -214 24 -56 19 -81 22 -132 18 -69 -7 -90 -15
-144 -59 -27 -21 -51 -29 -99 -35 -35 -3 -98 -19 -139 -34 -41 -16 -79 -26
-84 -23 -20 12 -6 55 30 92 51 53 324 162 405 162 33 0 76 9 117 26 36 15 76
31 90 36 14 6 34 15 45 21 11 5 48 11 82 13 34 2 74 9 90 17 15 8 57 20 93 26
36 7 84 19 108 27 30 10 49 11 62 4 26 -14 77 -13 103 2 21 12 182 25 273 23
24 -1 48 -8 58 -18z m2256 15 c0 -4 19 -6 42 -4 34 4 44 0 59 -19 25 -32 24
-45 -6 -74 -16 -17 -35 -25 -58 -25 -31 0 -35 -3 -40 -32 -2 -19 0 -36 7 -40
6 -5 3 -8 -10 -8 -15 0 -24 9 -31 33 -9 30 -8 133 2 165 5 13 35 17 35 4z
m208 -18 c21 -6 13 -39 -16 -72 -16 -18 -33 -32 -37 -32 -5 0 -16 -7 -26 -16
-10 -9 -26 -14 -36 -12 -13 3 -7 10 27 30 25 15 51 37 59 49 12 21 11 25 -14
46 l-27 24 28 -6 c16 -4 35 -8 42 -11z m-2180 -61 c-10 -2 -26 -2 -35 0 -10 3
-2 5 17 5 19 0 27 -2 18 -5z m56 -53 c5 -28 6 -28 33 -15 35 17 110 12 130 -8
13 -13 14 -18 1 -35 -9 -13 -19 -18 -27 -13 -10 6 -7 12 10 25 20 14 21 16 5
16 -10 0 -37 -13 -60 -28 -55 -37 -80 -43 -106 -25 -11 8 -27 12 -35 9 -19 -7
-36 16 -25 34 5 8 6 18 3 23 -3 4 -2 18 1 31 4 18 11 22 35 18 22 -3 30 -10
35 -32z m233 -26 c-3 -3 -12 -4 -19 -1 -8 3 -5 6 6 6 11 1 17 -2 13 -5z m-197
-88 c0 -3 -4 -8 -10 -11 -5 -3 -10 -1 -10 4 0 6 5 11 10 11 6 0 10 -2 10 -4z
m-540 -147 c0 -4 -4 -11 -10 -14 -25 -15 -5 -25 49 -25 69 0 121 -9 121 -21 0
-5 -25 -9 -55 -9 -30 0 -55 -4 -55 -8 0 -5 8 -26 19 -48 10 -21 21 -61 25 -88
3 -28 12 -53 18 -57 23 -14 -2 -22 -90 -30 -150 -13 -513 -78 -553 -99 -28
-16 -71 -12 -163 15 -123 36 -184 33 -270 -10 -37 -19 -81 -35 -97 -35 -16 0
-74 -22 -129 -50 -134 -67 -178 -67 -129 2 49 69 66 79 161 104 52 13 131 44
178 69 233 122 321 155 475 180 55 8 115 20 133 26 34 11 43 29 15 29 -41 0
10 19 117 44 189 44 240 49 240 25z m1141 -162 c-1 -12 -15 -9 -19 4 -3 6 1
10 8 8 6 -3 11 -8 11 -12z m17 -93 c1 -50 -1 -54 -13 -38 -8 11 -15 29 -15 41
0 12 -5 25 -10 28 -8 5 -7 11 0 20 22 26 36 6 38 -51z m-673 26 c-3 -5 -13
-10 -21 -10 -8 0 -12 5 -9 10 3 6 13 10 21 10 8 0 12 -4 9 -10z m1807 -40 c5
0 6 5 3 10 -3 6 -1 10 4 10 17 0 13 -14 -9 -33 -13 -11 -20 -13 -20 -4 0 6 -3
23 -5 37 -5 25 -5 25 6 3 7 -13 16 -23 21 -23z m-1886 10 c-22 -11 -45 -20
-52 -20 -7 0 -14 -6 -17 -12 -3 -10 -7 -10 -17 -1 -10 9 -7 13 16 18 16 4 43
13 59 21 46 21 55 16 11 -6z m789 -49 c5 -17 4 -22 -6 -19 -8 3 -15 18 -17 34
-4 33 11 24 23 -15z m-895 14 c0 -8 9 -24 20 -35 24 -24 25 -41 4 -86 -24 -50
-44 -45 -37 10 3 29 0 55 -9 73 -10 21 -11 32 -4 40 15 17 26 16 26 -2z m1970
-40 c0 -8 6 -15 14 -15 28 0 66 -41 66 -70 0 -40 -29 -54 -98 -46 -54 6 -54 6
-50 -19 4 -21 1 -25 -18 -25 -23 0 -33 14 -16 23 4 2 1 2 -7 0 -32 -8 -29 45
3 68 5 4 6 15 2 24 -4 13 3 20 34 32 21 9 39 18 38 22 -1 15 3 21 17 21 8 0
15 -7 15 -15z m-2030 -15 c38 -38 13 -100 -40 -100 -47 0 -68 64 -33 102 21
24 48 23 73 -2z m2121 -3 c-10 -9 -11 -8 -5 6 3 10 9 15 12 12 3 -3 0 -11 -7
-18z m-2243 -38 l3 -34 -16 29 c-18 34 -19 49 -2 44 6 -3 13 -20 15 -39z
m2272 5 c0 -8 -4 -12 -10 -9 -5 3 -10 10 -10 16 0 5 5 9 10 9 6 0 10 -7 10
-16z m-4475 -33 c-3 -6 -11 -11 -17 -11 -6 0 -6 6 2 15 14 17 26 13 15 -4z
m3366 -19 c-13 -4 -42 23 -34 32 4 3 15 -2 25 -11 11 -10 15 -19 9 -21z m1149
-41 c-1 -13 -3 -13 -15 3 -19 26 -19 42 0 26 8 -7 15 -20 15 -29z m-2447 -41
c36 -25 67 -83 67 -128 0 -15 10 -26 33 -36 l32 -13 -38 -8 c-20 -4 -46 -5
-56 -2 -31 8 -255 -28 -422 -68 -163 -39 -190 -40 -281 -7 -45 16 -48 15 -95
-6 -26 -12 -79 -27 -118 -33 -38 -6 -82 -18 -96 -25 -35 -18 -111 -22 -116 -7
-2 6 48 38 118 73 67 34 129 70 138 80 9 10 35 28 59 41 36 20 46 21 63 11 18
-12 22 -10 32 17 6 17 27 38 48 50 44 25 49 26 49 7 0 -35 15 -32 285 50 140
42 240 44 298 4z m227 -30 c0 -5 -4 -10 -10 -10 -5 0 -10 5 -10 10 0 6 5 10
10 10 6 0 10 -4 10 -10z m1430 -45 c0 -8 9 -15 19 -15 30 0 33 -16 6 -28 -21
-10 -25 -8 -30 9 -4 13 -12 18 -22 15 -24 -10 -36 5 -16 20 24 18 43 18 43 -1z
m88 -20 c-3 -3 -9 2 -12 12 -6 14 -5 15 5 6 7 -7 10 -15 7 -18z m-3 -35 c3 -5
2 -10 -4 -10 -5 0 -13 5 -16 10 -3 6 -2 10 4 10 5 0 13 -4 16 -10z m-667 -28
c6 -18 -15 -14 -22 4 -4 10 -1 14 6 12 6 -2 14 -10 16 -16z m3272 -50 c0 -28
-3 -33 -10 -22 -13 20 -13 73 0 65 6 -3 10 -23 10 -43z m-4116 2 c13 -35 5
-240 -13 -309 -20 -77 -18 -95 7 -66 15 17 43 22 227 36 116 8 287 22 380 30
94 8 235 19 315 25 80 5 171 12 203 15 31 3 57 3 57 2 0 -2 -9 -41 -19 -88
-10 -46 -27 -120 -36 -164 -15 -71 -22 -85 -59 -119 -22 -21 -59 -47 -81 -56
-22 -10 -53 -32 -68 -50 -26 -28 -33 -31 -65 -25 -20 4 -44 11 -53 16 -24 13
-31 65 -14 106 18 44 18 43 0 43 -9 0 -18 -7 -21 -15 -9 -23 -30 -18 -43 11
-10 23 -16 25 -54 21 -23 -3 -63 -11 -89 -18 -46 -12 -46 -12 -52 -63 -4 -28
-11 -57 -15 -65 -10 -15 -31 -6 -31 13 0 8 -11 48 -25 90 -14 42 -25 90 -25
106 0 40 -13 44 -48 15 -28 -23 -34 -25 -74 -15 -24 6 -117 15 -208 19 -164 9
-164 9 -187 38 -13 15 -23 33 -23 40 0 7 -7 16 -15 20 -9 5 -11 13 -6 22 7 10
13 10 29 2 40 -21 44 -17 68 79 8 32 13 111 14 188 0 120 8 158 24 116z m4097
-153 c-1 -32 -6 -71 -11 -87 l-8 -29 -1 31 c-1 46 11 155 17 149 3 -3 4 -31 3
-64z m-1971 -51 c0 -5 -7 -10 -16 -10 -11 0 -14 -6 -9 -20 5 -14 2 -20 -9 -20
-9 0 -16 -8 -16 -19 0 -11 -13 -35 -30 -53 -16 -18 -30 -38 -30 -45 0 -6 -6
-18 -12 -25 -26 -27 -38 -65 -40 -133 -2 -48 -7 -69 -15 -68 -7 2 -10 -3 -7
-11 8 -21 -31 -24 -91 -9 -27 7 -92 15 -144 18 -61 3 -97 9 -102 17 -4 7 -11
10 -14 6 -4 -4 -30 0 -58 9 -65 19 -118 12 -199 -26 -35 -16 -72 -32 -82 -35
-10 -4 -16 -9 -12 -13 9 -10 -33 -35 -46 -27 -7 5 -9 2 -6 -8 9 -21 -4 -37
-32 -41 -19 -3 -29 -14 -40 -45 -8 -23 -18 -42 -23 -42 -5 0 -7 6 -4 13 2 6
14 57 27 112 12 55 26 108 31 117 5 10 9 25 9 33 0 8 5 15 10 15 6 0 9 12 8
28 -1 15 -1 41 0 57 2 23 4 27 12 15 7 -12 10 -8 10 15 0 46 20 108 38 123 9
6 34 11 56 11 l41 -2 -34 -6 c-19 -3 -36 -12 -39 -19 -3 -11 0 -12 18 -2 12 7
33 10 46 7 16 -3 24 0 24 9 0 8 12 15 28 16 15 0 38 3 52 4 26 4 242 13 294
13 15 0 35 6 44 13 12 10 14 10 8 1 -5 -10 1 -11 26 -6 18 3 66 7 108 7 41 1
78 5 81 10 4 4 30 10 59 12 29 2 55 6 58 9 9 8 22 6 22 -5z m-2802 -71 c32
-28 73 -59 92 -69 43 -22 140 -51 150 -45 4 3 50 5 103 6 70 1 99 -2 109 -12
15 -16 22 -109 8 -109 -6 0 -10 -9 -10 -20 0 -11 -6 -20 -12 -21 -7 0 1 -5 17
-10 18 -6 138 -7 307 -3 l277 6 7 -27 c4 -16 2 -31 -5 -38 -20 -21 -453 -27
-701 -10 -118 7 -251 15 -295 16 l-79 2 -19 -38 c-28 -60 -49 -47 -64 38 -7
39 -10 87 -7 108 5 34 4 37 -19 37 -29 0 -38 -24 -30 -76 7 -43 -8 -50 -66
-29 -60 21 -117 20 -130 -2 -12 -22 -23 -12 -23 21 0 17 19 45 62 88 34 35 73
87 87 116 13 28 30 52 36 52 7 0 41 16 77 35 36 19 67 34 68 35 2 0 29 -23 60
-51z m2335 34 c-7 -2 -19 -2 -25 0 -7 3 -2 5 12 5 14 0 19 -2 13 -5z m1942
-119 c9 -10 13 -20 8 -23 -12 -8 -4 -101 8 -101 5 0 9 10 9 22 0 12 3 19 6 15
3 -3 3 -20 -1 -38 -5 -21 -10 -27 -15 -19 -6 9 -10 6 -15 -9 -10 -32 -14 -23
-21 48 -4 42 -2 66 6 76 10 12 10 18 0 30 -17 20 -6 19 15 -1z m445 -207 c-6
-41 -22 -90 -36 -114 -32 -56 -49 -65 -19 -10 21 36 33 90 56 242 1 6 4 -3 6
-18 3 -15 -1 -60 -7 -100z m-498 -84 c-17 -31 -40 -87 -44 -106 -3 -19 -24
-25 -22 -7 1 6 2 28 3 51 0 22 5 38 10 35 5 -3 7 -15 4 -26 -3 -11 -3 -20 0
-20 4 0 11 19 18 43 6 23 16 45 22 49 16 10 20 3 9 -19z m-96 -112 c-9 -16
-12 -31 -9 -35 4 -3 1 -6 -5 -6 -7 0 -12 -6 -12 -14 0 -12 7 -13 32 -5 45 12
48 12 48 -10 0 -11 5 -23 10 -26 6 -3 10 -17 10 -29 0 -38 18 -45 90 -34 70
11 138 14 146 5 7 -6 -97 -187 -107 -187 -5 0 -9 -7 -9 -16 0 -16 -197 -214
-212 -214 -5 0 -8 -7 -8 -15 0 -8 -2 -15 -4 -15 -2 0 -12 -3 -22 -7 -11 -4
-15 -3 -11 4 4 6 0 13 -8 17 -23 8 -18 42 8 54 18 9 19 11 4 11 -10 1 -15 6
-12 11 4 6 11 8 16 5 5 -4 9 -3 9 2 0 4 14 16 30 25 26 15 30 21 24 45 -4 15
-11 30 -16 31 -21 9 -5 22 27 22 19 0 35 5 35 10 0 18 -68 11 -79 -7 -6 -10
-11 -14 -11 -10 0 4 -15 -6 -32 -22 -28 -26 -34 -28 -36 -13 -2 9 -8 22 -14
27 -7 7 -8 -1 -3 -24 5 -23 4 -31 -4 -27 -6 4 -11 13 -11 20 0 8 -9 16 -21 19
-13 4 -18 10 -13 18 5 8 3 10 -6 4 -18 -11 -31 15 -15 32 8 7 21 10 29 7 19
-7 21 7 5 23 -7 7 -25 9 -40 6 -34 -7 -38 4 -6 17 20 8 19 9 -10 9 -17 1 -35
6 -39 12 -4 8 -9 7 -15 -2 -14 -24 -18 -4 -4 21 40 70 40 67 12 130 l-25 60
25 19 c37 30 61 35 79 16 10 -10 20 -12 28 -7 18 14 55 21 62 11 3 -5 10 -9
15 -9 6 0 7 5 4 10 -4 7 2 9 19 4 16 -4 26 -2 26 5 0 10 30 51 37 51 2 0 -3
-13 -11 -29z m-6446 -18 c0 -22 -2 -25 -10 -13 -13 20 -13 40 0 40 6 0 10 -12
10 -27z m6920 -42 c-16 -29 -30 -56 -30 -61 0 -17 -73 -160 -82 -160 -4 0 -8
-7 -8 -15 0 -8 -4 -15 -10 -15 -5 0 -10 -7 -10 -15 0 -8 -3 -15 -7 -15 -5 0
-19 -17 -33 -38 -46 -69 -70 -84 -43 -27 9 19 20 32 24 30 8 -6 22 25 14 33
-3 3 -5 0 -5 -6 0 -7 -4 -12 -10 -12 -15 0 16 88 47 133 15 22 45 59 67 81 21
23 54 65 74 94 44 66 53 61 12 -7z m-6980 -15 c0 -5 -7 -1 -15 10 -8 10 -14
24 -14 29 0 6 6 1 14 -9 8 -11 15 -24 15 -30z m55 -76 c3 -5 1 -10 -4 -10 -6
0 -11 5 -11 10 0 6 2 10 4 10 3 0 8 -4 11 -10z m-426 -136 c31 -25 56 -51 56
-57 0 -6 -22 -23 -48 -39 -59 -34 -87 -66 -128 -143 -41 -77 -69 -107 -86 -93
-10 8 -9 16 2 39 9 17 15 56 15 100 0 39 5 89 12 111 13 45 82 128 105 128 9
0 41 -21 72 -46z m3676 -19 c44 -9 132 -20 196 -24 64 -5 121 -11 127 -15 7
-4 5 -24 -4 -61 -17 -63 -13 -75 21 -75 30 0 49 -32 40 -67 -6 -24 -7 -24 -24
-9 -20 18 -39 17 -129 -12 -38 -12 -54 -22 -58 -38 -7 -29 -52 -71 -63 -58 -9
10 -31 128 -31 168 0 30 -15 33 -43 9 -17 -16 -48 -18 -263 -21 l-243 -4 0 59
c1 40 9 76 27 117 l26 59 170 -6 c98 -3 205 -12 251 -22z m2905 9 c0 -3 -6
-12 -14 -19 -17 -17 -30 -7 -15 12 12 13 29 18 29 7z m38 -23 c9 -5 28 -14 42
-20 20 -8 14 -9 -30 -4 -54 6 -80 13 -46 13 9 0 14 5 11 10 -8 12 0 13 23 1z
m252 -131 c0 -5 -4 -10 -10 -10 -5 0 -10 5 -10 10 0 6 5 10 10 10 6 0 10 -4
10 -10z m215 -28 c-16 -15 -48 -47 -70 -72 -40 -46 -123 -115 -130 -108 -9 9
48 68 66 68 12 0 21 9 25 25 4 14 11 24 17 22 5 -1 30 19 55 45 25 26 50 48
56 48 6 0 -2 -13 -19 -28z m-335 -77 c-7 -8 -10 -23 -7 -34 2 -10 1 -25 -4
-32 -6 -9 -9 0 -9 27 0 41 5 54 23 54 5 0 4 -7 -3 -15z m30 -46 c0 -6 -4 -7
-10 -4 -5 3 -10 11 -10 16 0 6 5 7 10 4 6 -3 10 -11 10 -16z m15 -29 c-3 -5
-13 -10 -21 -10 -8 0 -14 5 -14 10 0 6 9 10 21 10 11 0 17 -4 14 -10z"/>
<path d="M4610 5268 c0 -7 8 -22 17 -33 14 -18 15 -18 9 -2 -3 10 -6 25 -6 33
0 8 -4 14 -10 14 -5 0 -10 -6 -10 -12z"/>
<path d="M6402 3625 c0 -16 2 -22 5 -12 2 9 2 23 0 30 -3 6 -5 -1 -5 -18z"/>
<path d="M6262 3130 c0 -14 2 -19 5 -12 2 6 2 18 0 25 -3 6 -5 1 -5 -13z"/>
<path d="M6744 3068 c-23 -11 -41 -40 -46 -72 -5 -32 16 -27 32 7 20 43 71 51
95 14 9 -14 15 -36 13 -49 -4 -35 16 -34 26 1 14 47 -8 88 -53 101 -42 12 -40
12 -67 -2z"/>
<path d="M6890 2990 c0 -5 5 -10 11 -10 5 0 7 5 4 10 -3 6 -8 10 -11 10 -2 0
-4 -4 -4 -10z"/>
<path d="M8560 3010 c0 -5 5 -10 11 -10 5 0 7 5 4 10 -3 6 -8 10 -11 10 -2 0
-4 -4 -4 -10z"/>
<path d="M8535 2987 c-4 -10 -5 -21 -1 -24 10 -10 18 4 13 24 -4 17 -4 17 -12
0z"/>
<path d="M8290 2890 c0 -5 10 -10 23 -10 18 0 19 2 7 10 -19 13 -30 13 -30 0z"/>
<path d="M8580 2890 c0 -5 5 -10 11 -10 5 0 7 5 4 10 -3 6 -8 10 -11 10 -2 0
-4 -4 -4 -10z"/>
<path d="M8240 2874 c0 -6 -35 -10 -84 -10 -91 0 -151 -21 -208 -73 -16 -14
-28 -21 -28 -16 0 5 -9 -1 -20 -13 -11 -12 -20 -26 -20 -31 0 -6 -7 -14 -15
-18 -9 -5 -17 -29 -19 -58 -15 -154 -15 -181 -6 -195 7 -11 10 2 10 45 0 168
114 290 280 302 133 10 244 -54 283 -163 22 -63 23 -183 1 -225 -19 -38 -12
-63 16 -54 11 4 19 3 18 -2 -2 -4 1 -8 7 -8 5 0 9 6 7 12 -2 7 3 23 11 35 11
18 12 48 7 133 -6 91 -12 120 -35 168 -15 31 -31 57 -36 57 -5 0 -9 11 -9 24
0 28 -16 42 -42 38 -12 -2 -16 2 -12 11 4 11 -5 14 -37 14 -29 0 -46 6 -56 19
-7 10 -13 13 -13 8z m150 -74 c0 -5 -2 -10 -4 -10 -3 0 -8 5 -11 10 -3 6 -1
10 4 10 6 0 11 -4 11 -10z"/>
<path d="M8614 2794 c-4 -14 -2 -30 5 -37 8 -8 11 -1 11 26 0 43 -7 48 -16 11z"/>
<path d="M7766 2764 c-9 -24 -7 -28 9 -14 17 14 20 30 6 30 -5 0 -12 -7 -15
-16z"/>
<path d="M8073 2630 c-81 -49 -90 -171 -18 -226 24 -18 44 -24 83 -24 46 0 56
4 92 38 37 36 40 43 40 93 0 76 -8 96 -45 119 -42 26 -110 26 -152 0z"/>
<path d="M8632 2620 c0 -14 2 -19 5 -12 2 6 2 18 0 25 -3 6 -5 1 -5 -13z"/>
<path d="M7850 2406 c0 -14 5 -28 10 -31 6 -4 10 7 10 24 0 17 -4 31 -10 31
-5 0 -10 -11 -10 -24z"/>
<path d="M8405 2329 c-4 -6 -5 -13 -2 -16 7 -7 27 6 27 18 0 12 -17 12 -25 -2z"/>
<path d="M7910 2303 c0 -16 37 -59 45 -52 3 4 -5 19 -19 34 -15 16 -26 23 -26
18z"/>
<path d="M8376 2285 c-10 -8 -16 -18 -15 -24 3 -6 12 -4 23 4 10 8 16 18 15
24 -3 6 -12 4 -23 -4z"/>
<path d="M8343 2193 c-33 -23 -28 -36 7 -18 17 9 30 20 30 25 0 14 -11 12 -37
-7z"/>
<path d="M7995 2190 c-17 -6 -16 -7 8 -12 15 -3 30 -2 32 2 7 12 -18 18 -40
10z"/>
<path d="M8080 2186 c0 -9 7 -12 20 -9 11 3 17 9 14 14 -8 14 -34 10 -34 -5z"/>
<path d="M8165 2180 c4 -6 11 -8 16 -5 14 9 11 15 -7 15 -8 0 -12 -5 -9 -10z"/>
<path d="M7720 2170 c0 -5 7 -10 15 -10 8 0 15 5 15 10 0 6 -7 10 -15 10 -8 0
-15 -4 -15 -10z"/>
<path d="M7825 2170 c3 -5 8 -10 11 -10 2 0 4 5 4 10 0 6 -5 10 -11 10 -5 0
-7 -4 -4 -10z"/>
<path d="M8991 2624 c0 -11 3 -14 6 -6 3 7 2 16 -1 19 -3 4 -6 -2 -5 -13z"/>
<path d="M8991 2504 c0 -11 3 -14 6 -6 3 7 2 16 -1 19 -3 4 -6 -2 -5 -13z"/>
<path d="M8688 1283 c6 -2 18 -2 25 0 6 3 1 5 -13 5 -14 0 -19 -2 -12 -5z"/>
<path d="M8320 1260 c0 -13 11 -13 30 0 12 8 11 10 -7 10 -13 0 -23 -4 -23
-10z"/>
<path d="M8208 1243 c6 -2 18 -2 25 0 6 3 1 5 -13 5 -14 0 -19 -2 -12 -5z"/>
<path d="M8741 1054 c0 -11 3 -14 6 -6 3 7 2 16 -1 19 -3 4 -6 -2 -5 -13z"/>
<path d="M7990 1050 c0 -5 5 -10 10 -10 6 0 10 5 10 10 0 6 -4 10 -10 10 -5 0
-10 -4 -10 -10z"/>
<path d="M7986 991 c-4 -7 -5 -15 -2 -18 9 -9 19 4 14 18 -4 11 -6 11 -12 0z"/>
<path d="M8740 960 c0 -5 5 -10 11 -10 5 0 7 5 4 10 -3 6 -8 10 -11 10 -2 0
-4 -4 -4 -10z"/>
<path d="M7961 953 c0 -5 4 -17 9 -28 8 -18 9 -17 9 8 1 15 -3 27 -9 27 -5 0
-10 -3 -9 -7z"/>
<path d="M8722 930 c0 -14 2 -19 5 -12 2 6 2 18 0 25 -3 6 -5 1 -5 -13z"/>
<path d="M8058 923 c6 -2 18 -2 25 0 6 3 1 5 -13 5 -14 0 -19 -2 -12 -5z"/>
<path d="M7950 870 c0 -5 5 -10 10 -10 6 0 10 5 10 10 0 6 -4 10 -10 10 -5 0
-10 -4 -10 -10z"/>
<path d="M6485 996 l-50 -12 34 -7 c60 -12 93 -9 89 10 -4 22 -13 23 -73 9z"/>
<path d="M10295 650 c-3 -5 1 -10 9 -10 9 0 16 5 16 10 0 6 -4 10 -9 10 -6 0
-13 -4 -16 -10z"/>
<path d="M10535 579 c-10 -15 3 -25 16 -12 7 7 7 13 1 17 -6 3 -14 1 -17 -5z"/>
<path d="M10155 440 c-3 -5 3 -10 15 -10 12 0 18 5 15 10 -3 6 -10 10 -15 10
-5 0 -12 -4 -15 -10z"/>
<path d="M10280 440 c-12 -7 -11 -10 5 -16 11 -4 23 -9 28 -11 4 -2 7 5 7 16
0 22 -16 27 -40 11z"/>
<path d="M10130 390 c0 -5 5 -10 10 -10 6 0 10 5 10 10 0 6 -4 10 -10 10 -5 0
-10 -4 -10 -10z"/>
<path d="M10330 390 c0 -5 5 -10 10 -10 6 0 10 5 10 10 0 6 -4 10 -10 10 -5 0
-10 -4 -10 -10z"/>
<path d="M10240 239 c0 -5 9 -9 20 -9 11 0 20 2 20 4 0 2 -9 6 -20 9 -11 3
-20 1 -20 -4z"/>
<path d="M6570 7981 c0 -23 28 -54 41 -46 5 4 9 19 9 36 0 24 -4 29 -25 29
-18 0 -25 -5 -25 -19z"/>
<path d="M6367 7784 c-51 -47 -108 -89 -220 -158 -15 -9 -31 -25 -34 -34 -4
-9 -13 -22 -21 -28 -13 -9 -12 -12 6 -16 12 -3 23 -1 24 4 2 5 14 1 27 -9 22
-18 22 -20 8 -55 -8 -20 -17 -71 -18 -115 -4 -72 -2 -78 16 -81 28 -4 93 54
176 157 95 117 139 206 139 280 0 55 -15 102 -35 107 -5 2 -36 -22 -68 -52z"/>
<path d="M4386 7745 c-11 -8 -15 -15 -9 -15 6 0 16 7 23 15 16 19 11 19 -14 0z"/>
<path d="M6143 7523 c-15 -5 -17 -23 -4 -23 5 0 11 7 15 15 3 8 4 15 3 14 -1
0 -8 -3 -14 -6z"/>
<path d="M6415 7421 c-27 -35 -65 -80 -82 -101 -39 -44 -42 -75 -11 -100 17
-14 22 -28 22 -59 -1 -23 3 -41 8 -41 29 0 123 274 116 337 -3 27 -5 25 -53
-36z"/>
<path d="M6111 7454 c0 -11 3 -14 6 -6 3 7 2 16 -1 19 -3 4 -6 -2 -5 -13z"/>
<path d="M6092 7390 c0 -14 2 -19 5 -12 2 6 2 18 0 25 -3 6 -5 1 -5 -13z"/>
<path d="M6034 7329 c-3 -6 -1 -16 5 -22 8 -8 11 -5 11 11 0 24 -5 28 -16 11z"/>
<path d="M6082 7320 c0 -14 2 -19 5 -12 2 6 2 18 0 25 -3 6 -5 1 -5 -13z"/>
<path d="M4990 7280 c-9 -6 -10 -10 -3 -10 6 0 15 5 18 10 8 12 4 12 -15 0z"/>
<path d="M6270 7199 c0 -5 5 -7 10 -4 6 3 10 8 10 11 0 2 -4 4 -10 4 -5 0 -10
-5 -10 -11z"/>
<path d="M6616 6932 c-15 -17 -15 -22 -1 -48 8 -16 15 -37 15 -47 0 -10 7 -20
15 -23 8 -4 15 -14 15 -23 1 -9 10 -41 21 -71 11 -30 23 -63 26 -72 3 -10 9
-18 14 -18 5 0 9 -6 9 -14 0 -7 12 -40 26 -72 30 -67 52 -127 64 -169 4 -16
18 -66 30 -110 33 -121 70 -319 61 -328 -4 -4 -28 -3 -52 3 -39 10 -49 19 -82
73 -57 92 -131 137 -222 137 -54 0 -156 -32 -209 -66 -49 -32 -121 -140 -146
-221 -16 -51 -16 -61 -2 -117 8 -34 16 -62 17 -64 2 -2 26 22 55 52 47 50 85
75 95 64 3 -2 -6 -24 -18 -49 -17 -33 -23 -66 -25 -135 l-4 -91 46 -37 c117
-97 287 -110 391 -31 59 46 68 73 74 233 l6 144 30 24 c66 52 71 36 95 -306
11 -167 17 -220 25 -228 3 -3 5 4 5 14 0 11 4 24 10 30 37 37 54 420 24 575
-16 85 -57 224 -73 243 -4 6 -11 23 -15 38 -3 15 -31 82 -62 150 -63 140 -114
286 -170 491 -7 23 -21 22 -29 -3 -9 -27 -39 -27 -32 0 3 11 1 18 -4 15 -5 -3
-7 12 -5 35 2 22 2 40 1 40 -1 0 -9 -8 -19 -18z m118 -1106 c23 -9 35 -22 38
-40 7 -36 2 -201 -6 -215 -12 -19 -26 -1 -26 33 0 49 -26 128 -60 177 -16 24
-30 47 -30 52 0 12 48 8 84 -7z m-145 -70 c7 -8 11 -27 9 -43 -3 -24 -8 -28
-33 -28 -26 0 -30 4 -33 28 -2 16 -1 35 2 43 7 18 40 18 55 0z m-99 -185 c0
-11 -4 -22 -8 -25 -14 -9 -35 12 -29 28 9 23 37 20 37 -3z"/>
<path d="M6460 6775 c-11 -13 -10 -14 4 -9 9 3 16 10 16 15 0 13 -6 11 -20 -6z"/>
<path d="M6426 6734 c-5 -14 -4 -15 9 -4 17 14 19 20 6 20 -5 0 -12 -7 -15
-16z"/>
<path d="M6389 6693 c-13 -16 -12 -17 4 -4 16 13 21 21 13 21 -2 0 -10 -8 -17
-17z"/>
<path d="M7020 6430 c0 -7 6 -26 14 -43 28 -62 84 -243 91 -292 7 -56 31 -194
46 -272 10 -51 8 -74 -12 -183 -7 -35 -7 -64 -1 -80 9 -23 10 -21 21 25 6 28
16 116 22 197 12 159 3 238 -42 372 -48 141 -139 322 -139 276z"/>
<path d="M6435 6312 c-94 -47 -195 -56 -249 -22 -20 12 -36 18 -36 13 0 -5 17
-19 39 -31 46 -26 126 -29 174 -8 18 8 48 19 67 25 33 10 107 62 85 59 -5 -1
-41 -17 -80 -36z"/>
<path d="M7100 5475 c-7 -16 -18 -42 -26 -57 -8 -14 -14 -33 -14 -42 0 -9 -4
-16 -8 -16 -9 0 -42 -70 -42 -88 0 -6 -9 -17 -20 -25 -19 -13 -19 -15 -2 -33
9 -11 22 -29 28 -40 6 -10 21 -23 33 -29 12 -5 32 -31 44 -57 12 -27 25 -48
29 -48 13 0 8 74 -7 100 -17 31 -20 199 -4 284 12 67 7 94 -11 51z"/>
<path d="M6945 4995 c-16 -89 -16 -102 -1 -178 38 -198 56 -257 78 -257 3 0
13 -7 22 -15 12 -12 163 -95 172 -95 1 0 -3 13 -9 29 -10 26 -7 33 22 68 35
42 36 44 70 89 21 30 22 35 11 88 -6 31 -18 62 -26 70 -8 8 -14 19 -14 25 0 6
-5 11 -11 11 -6 0 -8 -7 -5 -15 4 -10 -2 -19 -16 -24 -19 -7 -22 -14 -19 -50
3 -54 -15 -54 -71 2 -24 23 -55 51 -69 62 -28 22 -54 90 -84 213 -9 39 -21 72
-25 72 -4 0 -15 -43 -25 -95z m300 -305 c3 -5 1 -10 -4 -10 -6 0 -11 5 -11 10
0 6 2 10 4 10 3 0 8 -4 11 -10z"/>
<path d="M6092 5068 c-8 -8 -48 -14 -103 -15 -83 -2 -94 -5 -124 -30 -42 -35
-42 -38 -6 -41 16 -1 45 -9 65 -17 73 -31 122 -19 193 48 31 29 32 32 16 49
-19 21 -25 22 -41 6z"/>
<path d="M7030 5009 c0 -5 5 -7 10 -4 6 3 10 8 10 11 0 2 -4 4 -10 4 -5 0 -10
-5 -10 -11z"/>
<path d="M7178 4923 c7 -3 16 -2 19 1 4 3 -2 6 -13 5 -11 0 -14 -3 -6 -6z"/>
<path d="M7090 4905 c7 -8 17 -15 22 -15 6 0 5 7 -2 15 -7 8 -17 15 -22 15 -6
0 -5 -7 2 -15z"/>
<path d="M7183 4894 c9 -3 17 -9 17 -14 0 -5 -8 -6 -17 -3 -12 5 -15 2 -10
-10 3 -8 1 -17 -4 -19 -6 -2 -2 -12 9 -21 13 -12 22 -15 27 -8 3 6 -1 11 -9
11 -9 0 -16 5 -16 10 0 6 7 10 16 10 24 0 14 44 -11 47 -16 1 -16 1 -2 -3z"/>
<path d="M7222 4858 c2 -6 12 -12 22 -14 14 -2 15 0 5 12 -14 17 -32 19 -27 2z"/>
<path d="M7220 4815 c0 -8 5 -15 10 -15 6 0 10 7 10 15 0 8 -4 15 -10 15 -5 0
-10 -7 -10 -15z"/>
<path d="M6082 4749 c-29 -19 -38 -20 -72 -10 -58 17 -116 -12 -202 -102 -54
-57 -70 -69 -78 -57 -10 17 -17 13 -22 -15 -3 -18 5 -21 85 -29 139 -14 405
27 504 79 15 8 34 15 41 15 6 0 12 12 12 27 0 25 -1 25 -18 10 -17 -16 -20
-15 -53 18 -78 79 -141 100 -197 64z m88 -48 c0 -12 -26 -21 -60 -21 -29 0
-45 12 -33 24 10 9 93 7 93 -3z"/>
<path d="M7570 4528 c-14 -17 -40 -38 -60 -46 -27 -12 -31 -17 -17 -20 11 -2
29 6 41 17 12 12 27 21 33 21 9 0 37 49 31 56 -2 1 -15 -11 -28 -28z"/>
<path d="M6100 4445 c-30 -7 -77 -14 -105 -15 -44 -1 -47 -2 -25 -11 37 -15
156 -1 183 22 25 21 23 21 -53 4z"/>
<path d="M6900 4353 c0 -21 90 -103 114 -103 13 0 31 -3 40 -6 9 -3 16 -2 16
4 0 12 -95 82 -110 82 -6 0 -22 7 -35 16 -14 9 -25 12 -25 7z"/>
<path d="M7402 4345 c40 -23 189 -40 199 -23 15 22 10 28 -23 28 -18 0 -71 3
-118 6 -81 5 -84 4 -58 -11z"/>
<path d="M7383 4276 c31 -29 57 -58 57 -63 0 -6 -16 -13 -35 -16 -19 -3 -55
-20 -81 -38 -40 -30 -43 -34 -25 -41 34 -12 222 8 283 31 108 41 98 67 -22 60
-32 -2 -122 41 -169 80 -70 59 -76 50 -8 -13z"/>
<path d="M7045 3943 c-235 -56 -391 -95 -397 -101 -6 -6 64 -4 430 14 l122 6
0 28 c0 39 -33 60 -90 59 -25 -1 -54 -3 -65 -6z"/>
<path d="M11330 2015 c-11 -13 -9 -15 15 -15 16 0 25 5 23 12 -7 19 -24 20
-38 3z"/>
<path d="M4091 1871 c14 -9 182 -70 199 -73 16 -2 30 3 30 12 0 6 -10 10 -22
10 -11 0 -45 11 -74 25 -54 26 -166 47 -133 26z"/>
<path d="M11840 1800 c0 -22 5 -40 10 -40 6 0 10 18 10 40 0 22 -4 40 -10 40
-5 0 -10 -18 -10 -40z"/>
<path d="M11900 1800 c0 -39 1 -40 33 -40 l32 1 -22 18 c-13 11 -23 29 -23 40
0 12 -4 21 -10 21 -5 0 -10 -18 -10 -40z"/>
<path d="M4332 1780 c0 -14 2 -19 5 -12 2 6 2 18 0 25 -3 6 -5 1 -5 -13z"/>
<path d="M11784 1699 c3 -34 6 -88 6 -120 0 -52 2 -59 20 -59 18 0 20 7 20 59
0 32 -3 86 -6 120 -6 52 -10 61 -27 61 -18 0 -19 -5 -13 -61z"/>
<path d="M10990 1370 c0 -5 5 -10 10 -10 6 0 10 5 10 10 0 6 -4 10 -10 10 -5
0 -10 -4 -10 -10z"/>
<path d="M3517 1343 c-4 -3 -7 -17 -7 -29 0 -17 4 -22 15 -18 8 4 15 17 15 30
0 23 -10 31 -23 17z"/>
<path d="M4001 1304 c0 -11 3 -14 6 -6 3 7 2 16 -1 19 -3 4 -6 -2 -5 -13z"/>
<path d="M3580 1260 c0 -5 5 -10 10 -10 6 0 10 5 10 10 0 6 -4 10 -10 10 -5 0
-10 -4 -10 -10z"/>
<path d="M3696 1105 c-3 -8 -1 -15 4 -15 6 0 10 7 10 15 0 8 -2 15 -4 15 -2 0
-6 -7 -10 -15z"/>
<path d="M3930 1020 c0 -11 4 -20 8 -20 4 0 8 9 9 20 1 11 -2 20 -8 20 -5 0
-9 -9 -9 -20z"/>
<path d="M11810 1025 c7 -8 16 -15 21 -15 5 0 9 7 9 15 0 9 -9 15 -21 15 -18
0 -19 -2 -9 -15z"/>
<path d="M3730 1010 c0 -5 5 -10 10 -10 6 0 10 5 10 10 0 6 -4 10 -10 10 -5 0
-10 -4 -10 -10z"/>
<path d="M11075 970 c-3 -5 1 -10 9 -10 9 0 16 5 16 10 0 6 -4 10 -9 10 -6 0
-13 -4 -16 -10z"/>
<path d="M11505 630 c3 -5 8 -10 11 -10 2 0 4 5 4 10 0 6 -5 10 -11 10 -5 0
-7 -4 -4 -10z"/>
<path d="M11570 625 c7 -8 16 -15 21 -15 5 0 9 7 9 15 0 9 -9 15 -21 15 -18 0
-19 -2 -9 -15z"/>
<path d="M5475 520 c-3 -5 -1 -10 4 -10 6 0 11 5 11 10 0 6 -2 10 -4 10 -3 0
-8 -4 -11 -10z"/>
<path d="M2027 398 c-8 -12 -34 -57 -58 -98 -23 -41 -63 -102 -87 -135 -39
-53 -92 -145 -92 -160 0 -3 153 -5 340 -5 l341 0 -18 25 c-10 13 -63 48 -118
76 -55 28 -119 66 -143 85 -24 18 -46 34 -50 36 -4 2 -18 18 -31 36 -19 27
-28 32 -47 28 -33 -9 -40 14 -27 78 13 59 10 67 -10 34z"/>
<path d="M5900 292 c-8 -2 -21 -11 -27 -20 -15 -19 -17 -98 -3 -107 6 -3 10
-22 10 -40 0 -19 5 -55 12 -80 l12 -45 59 0 c36 0 56 4 52 10 -3 5 -17 10 -29
10 -20 0 -26 9 -41 63 -10 34 -21 96 -24 138 -5 61 -9 75 -21 71z"/>
<path d="M5230 280 c0 -5 5 -10 10 -10 6 0 10 5 10 10 0 6 -4 10 -10 10 -5 0
-10 -4 -10 -10z"/>
<path d="M5165 240 c-3 -5 -2 -10 4 -10 5 0 13 5 16 10 3 6 2 10 -4 10 -5 0
-13 -4 -16 -10z"/>
<path d="M5809 231 c17 -31 33 -37 29 -10 -2 13 -11 25 -21 27 -16 3 -17 1 -8
-17z"/>
</g>
</svg>
